<mxfile host="app.diagrams.net" modified="2023-04-10T14:38:39.761Z" agent="Mozilla/5.0 (X11; Ubuntu; Linux x86_64; rv:109.0) Gecko/20100101 Firefox/111.0" etag="_15TWJiiOF6UezOapCEj" version="21.1.5" type="github">
  <diagram name="Page-1" id="BmjIcGM8oCkEsc__Spi8">
    <mxGraphModel dx="2868" dy="1392" grid="1" gridSize="10" guides="1" tooltips="1" connect="1" arrows="1" fold="1" page="1" pageScale="1" pageWidth="3300" pageHeight="4681" math="0" shadow="0">
      <root>
        <mxCell id="0" />
        <mxCell id="1" parent="0" />
        <mxCell id="vNjgoKGC3daDF4KBpXQI-41" style="edgeStyle=elbowEdgeStyle;rounded=0;orthogonalLoop=1;jettySize=auto;html=1;entryX=0;entryY=0.5;entryDx=0;entryDy=0;" edge="1" parent="1" target="vNjgoKGC3daDF4KBpXQI-4">
          <mxGeometry relative="1" as="geometry">
            <mxPoint x="380" y="880" as="sourcePoint" />
          </mxGeometry>
        </mxCell>
        <mxCell id="vNjgoKGC3daDF4KBpXQI-1" value="" style="rounded=0;whiteSpace=wrap;html=1;" vertex="1" parent="1">
          <mxGeometry x="283.48" y="765" width="100" height="220" as="geometry" />
        </mxCell>
        <mxCell id="vNjgoKGC3daDF4KBpXQI-29" value="" style="edgeStyle=elbowEdgeStyle;rounded=0;orthogonalLoop=1;jettySize=auto;html=1;entryX=-0.027;entryY=0.084;entryDx=0;entryDy=0;entryPerimeter=0;" edge="1" parent="1" source="vNjgoKGC3daDF4KBpXQI-2" target="vNjgoKGC3daDF4KBpXQI-15">
          <mxGeometry relative="1" as="geometry">
            <mxPoint x="420" y="560" as="targetPoint" />
            <Array as="points">
              <mxPoint x="420" y="880" />
              <mxPoint x="420" y="750" />
              <mxPoint x="410" y="880" />
              <mxPoint x="420" y="750" />
              <mxPoint x="430" y="880" />
              <mxPoint x="430" y="880" />
              <mxPoint x="420" y="820" />
              <mxPoint x="410" y="880" />
              <mxPoint x="420" y="680" />
              <mxPoint x="410" y="880" />
              <mxPoint x="420" y="560" />
            </Array>
          </mxGeometry>
        </mxCell>
        <mxCell id="vNjgoKGC3daDF4KBpXQI-2" value="&lt;font style=&quot;font-size: 36px;&quot;&gt;PC&lt;/font&gt;" style="text;strokeColor=none;align=center;fillColor=none;html=1;verticalAlign=middle;whiteSpace=wrap;rounded=0;" vertex="1" parent="1">
          <mxGeometry x="283.48" y="815" width="100" height="120" as="geometry" />
        </mxCell>
        <mxCell id="vNjgoKGC3daDF4KBpXQI-33" value="" style="edgeStyle=elbowEdgeStyle;rounded=0;orthogonalLoop=1;jettySize=auto;html=1;" edge="1" parent="1" source="vNjgoKGC3daDF4KBpXQI-4" target="vNjgoKGC3daDF4KBpXQI-17">
          <mxGeometry relative="1" as="geometry">
            <Array as="points">
              <mxPoint x="670" y="880" />
            </Array>
          </mxGeometry>
        </mxCell>
        <mxCell id="vNjgoKGC3daDF4KBpXQI-4" value="" style="rounded=0;whiteSpace=wrap;html=1;" vertex="1" parent="1">
          <mxGeometry x="443.48" y="685" width="200" height="390" as="geometry" />
        </mxCell>
        <mxCell id="vNjgoKGC3daDF4KBpXQI-9" value="&lt;font style=&quot;font-size: 24px;&quot;&gt;PC&lt;/font&gt;" style="text;strokeColor=none;align=center;fillColor=none;html=1;verticalAlign=middle;whiteSpace=wrap;rounded=0;" vertex="1" parent="1">
          <mxGeometry x="340" y="815" width="120" height="50" as="geometry" />
        </mxCell>
        <mxCell id="vNjgoKGC3daDF4KBpXQI-11" value="" style="strokeWidth=2;html=1;shape=mxgraph.flowchart.terminator;whiteSpace=wrap;rotation=-91;" vertex="1" parent="1">
          <mxGeometry x="100" y="850" width="147.33" height="60" as="geometry" />
        </mxCell>
        <mxCell id="vNjgoKGC3daDF4KBpXQI-12" value="&lt;font style=&quot;font-size: 36px;&quot;&gt;IM&lt;/font&gt;" style="text;strokeColor=none;align=center;fillColor=none;html=1;verticalAlign=middle;whiteSpace=wrap;rounded=0;" vertex="1" parent="1">
          <mxGeometry x="460" y="825.89" width="160" height="84.11" as="geometry" />
        </mxCell>
        <mxCell id="vNjgoKGC3daDF4KBpXQI-14" style="edgeStyle=orthogonalEdgeStyle;rounded=0;orthogonalLoop=1;jettySize=auto;html=1;entryX=0;entryY=0.5;entryDx=0;entryDy=0;" edge="1" parent="1" target="vNjgoKGC3daDF4KBpXQI-2">
          <mxGeometry relative="1" as="geometry">
            <mxPoint x="200" y="875" as="sourcePoint" />
          </mxGeometry>
        </mxCell>
        <mxCell id="vNjgoKGC3daDF4KBpXQI-13" value="&lt;font style=&quot;font-size: 36px;&quot;&gt;MUX&lt;/font&gt;" style="text;strokeColor=none;align=center;fillColor=none;html=1;verticalAlign=middle;whiteSpace=wrap;rounded=0;connectable=0;" vertex="1" parent="1">
          <mxGeometry x="148.84" y="860" width="51.33" height="50" as="geometry" />
        </mxCell>
        <mxCell id="vNjgoKGC3daDF4KBpXQI-87" style="edgeStyle=elbowEdgeStyle;rounded=0;orthogonalLoop=1;jettySize=auto;html=1;entryX=0;entryY=0.5;entryDx=0;entryDy=0;" edge="1" parent="1" source="vNjgoKGC3daDF4KBpXQI-15" target="vNjgoKGC3daDF4KBpXQI-49">
          <mxGeometry relative="1" as="geometry" />
        </mxCell>
        <mxCell id="vNjgoKGC3daDF4KBpXQI-15" value="" style="rounded=0;whiteSpace=wrap;html=1;" vertex="1" parent="1">
          <mxGeometry x="720" y="355" width="80" height="1050" as="geometry" />
        </mxCell>
        <mxCell id="vNjgoKGC3daDF4KBpXQI-16" value="&lt;font style=&quot;font-size: 24px;&quot;&gt;PCIF&lt;/font&gt;" style="text;strokeColor=none;align=center;fillColor=none;html=1;verticalAlign=middle;whiteSpace=wrap;rounded=0;" vertex="1" parent="1">
          <mxGeometry x="180" y="825.89" width="120" height="40" as="geometry" />
        </mxCell>
        <mxCell id="vNjgoKGC3daDF4KBpXQI-17" value="&lt;font style=&quot;font-size: 36px;&quot;&gt;IF/ID&lt;br&gt;&lt;/font&gt;" style="text;strokeColor=none;align=center;fillColor=none;html=1;verticalAlign=middle;whiteSpace=wrap;rounded=0;" vertex="1" parent="1">
          <mxGeometry x="720" y="840" width="80" height="80" as="geometry" />
        </mxCell>
        <mxCell id="vNjgoKGC3daDF4KBpXQI-42" value="" style="rounded=0;whiteSpace=wrap;html=1;" vertex="1" parent="1">
          <mxGeometry x="1100" y="685" width="340" height="485" as="geometry" />
        </mxCell>
        <mxCell id="vNjgoKGC3daDF4KBpXQI-43" value="&lt;font style=&quot;font-size: 36px;&quot;&gt;Registers&lt;/font&gt;" style="text;strokeColor=none;align=center;fillColor=none;html=1;verticalAlign=middle;whiteSpace=wrap;rounded=0;" vertex="1" parent="1">
          <mxGeometry x="1150" y="842.5" width="260" height="170" as="geometry" />
        </mxCell>
        <mxCell id="vNjgoKGC3daDF4KBpXQI-48" value="&lt;font style=&quot;font-size: 24px;&quot;&gt;ReadReg1&lt;/font&gt;" style="text;strokeColor=none;align=center;fillColor=none;html=1;verticalAlign=middle;whiteSpace=wrap;rounded=0;" vertex="1" parent="1">
          <mxGeometry x="1100" y="710" width="120" height="60" as="geometry" />
        </mxCell>
        <mxCell id="vNjgoKGC3daDF4KBpXQI-49" value="&lt;font style=&quot;font-size: 24px;&quot;&gt;ReadReg2&lt;/font&gt;" style="text;strokeColor=none;align=center;fillColor=none;html=1;verticalAlign=middle;whiteSpace=wrap;rounded=0;" vertex="1" parent="1">
          <mxGeometry x="1100" y="800" width="120" height="60" as="geometry" />
        </mxCell>
        <mxCell id="vNjgoKGC3daDF4KBpXQI-51" value="&lt;font style=&quot;font-size: 24px;&quot;&gt;INSTRUCID[19:15]&lt;/font&gt;" style="text;strokeColor=none;align=center;fillColor=none;html=1;verticalAlign=middle;whiteSpace=wrap;rounded=0;connectable=0;" vertex="1" parent="1">
          <mxGeometry x="820" y="685" width="160" height="60" as="geometry" />
        </mxCell>
        <mxCell id="vNjgoKGC3daDF4KBpXQI-53" value="&lt;font style=&quot;font-size: 24px;&quot;&gt;INSTRUCID[24:20]&lt;/font&gt;" style="text;strokeColor=none;align=center;fillColor=none;html=1;verticalAlign=middle;whiteSpace=wrap;rounded=0;backgroundOutline=0;imageAspect=1;noLabel=0;allowArrows=1;connectable=0;" vertex="1" parent="1">
          <mxGeometry x="810" y="892.5" width="180" height="70" as="geometry" />
        </mxCell>
        <mxCell id="vNjgoKGC3daDF4KBpXQI-57" value="&lt;font style=&quot;font-size: 24px;&quot;&gt;WriteReg&lt;/font&gt;" style="text;strokeColor=none;align=center;fillColor=none;html=1;verticalAlign=middle;whiteSpace=wrap;rounded=0;" vertex="1" parent="1">
          <mxGeometry x="1100" y="970" width="120" height="60" as="geometry" />
        </mxCell>
        <mxCell id="vNjgoKGC3daDF4KBpXQI-58" value="&lt;font style=&quot;font-size: 24px;&quot;&gt;WriteData&lt;/font&gt;" style="text;strokeColor=none;align=center;fillColor=none;html=1;verticalAlign=middle;whiteSpace=wrap;rounded=0;" vertex="1" parent="1">
          <mxGeometry x="1100" y="1060" width="120" height="60" as="geometry" />
        </mxCell>
        <mxCell id="vNjgoKGC3daDF4KBpXQI-59" value="" style="ellipse;whiteSpace=wrap;html=1;" vertex="1" parent="1">
          <mxGeometry x="1250" y="1180" width="120" height="200" as="geometry" />
        </mxCell>
        <mxCell id="vNjgoKGC3daDF4KBpXQI-64" value="&lt;div&gt;&lt;font style=&quot;font-size: 36px;&quot;&gt;ImmGen&lt;/font&gt;&lt;/div&gt;" style="text;strokeColor=none;align=center;fillColor=none;html=1;verticalAlign=middle;whiteSpace=wrap;rounded=0;" vertex="1" parent="1">
          <mxGeometry x="1263.66" y="1245" width="100" height="70" as="geometry" />
        </mxCell>
        <mxCell id="vNjgoKGC3daDF4KBpXQI-65" value="" style="strokeWidth=2;html=1;shape=mxgraph.flowchart.terminator;whiteSpace=wrap;rotation=-180;" vertex="1" parent="1">
          <mxGeometry x="1150" y="440" width="237.33" height="160" as="geometry" />
        </mxCell>
        <mxCell id="vNjgoKGC3daDF4KBpXQI-66" value="&lt;font style=&quot;font-size: 36px;&quot;&gt;Hazard&lt;br&gt;&lt;/font&gt;" style="text;strokeColor=none;align=center;fillColor=none;html=1;verticalAlign=middle;whiteSpace=wrap;rounded=0;connectable=0;" vertex="1" parent="1">
          <mxGeometry x="1178.66" y="450" width="180" height="120" as="geometry" />
        </mxCell>
        <mxCell id="vNjgoKGC3daDF4KBpXQI-93" value="" style="shape=waypoint;sketch=0;fillStyle=solid;size=6;pointerEvents=1;points=[];fillColor=none;resizable=0;rotatable=0;perimeter=centerPerimeter;snapToPoint=1;" vertex="1" parent="1">
          <mxGeometry x="560" y="950" width="20" height="20" as="geometry" />
        </mxCell>
        <mxCell id="vNjgoKGC3daDF4KBpXQI-95" value="" style="shape=waypoint;sketch=0;fillStyle=solid;size=6;pointerEvents=1;points=[];fillColor=none;resizable=0;rotatable=0;perimeter=centerPerimeter;snapToPoint=1;" vertex="1" parent="1">
          <mxGeometry x="1230" y="1030" width="20" height="20" as="geometry" />
        </mxCell>
        <mxCell id="vNjgoKGC3daDF4KBpXQI-101" value="" style="endArrow=classic;html=1;rounded=0;exitX=1.021;exitY=0.365;exitDx=0;exitDy=0;exitPerimeter=0;entryX=0;entryY=0.5;entryDx=0;entryDy=0;" edge="1" parent="1" source="vNjgoKGC3daDF4KBpXQI-15" target="vNjgoKGC3daDF4KBpXQI-48">
          <mxGeometry width="50" height="50" relative="1" as="geometry">
            <mxPoint x="640" y="660" as="sourcePoint" />
            <mxPoint x="690" y="610" as="targetPoint" />
          </mxGeometry>
        </mxCell>
        <mxCell id="vNjgoKGC3daDF4KBpXQI-102" value="" style="endArrow=classic;html=1;rounded=0;entryX=-0.028;entryY=0.557;entryDx=0;entryDy=0;entryPerimeter=0;" edge="1" parent="1" target="vNjgoKGC3daDF4KBpXQI-59">
          <mxGeometry width="50" height="50" relative="1" as="geometry">
            <mxPoint x="800" y="1100" as="sourcePoint" />
            <mxPoint x="850" y="1040" as="targetPoint" />
            <Array as="points">
              <mxPoint x="960" y="1100" />
              <mxPoint x="960" y="1290" />
            </Array>
          </mxGeometry>
        </mxCell>
        <mxCell id="vNjgoKGC3daDF4KBpXQI-103" value="" style="endArrow=classic;html=1;rounded=0;jumpStyle=arc;jumpSize=36;entryX=0.966;entryY=0.275;entryDx=0;entryDy=0;entryPerimeter=0;" edge="1" parent="1" target="vNjgoKGC3daDF4KBpXQI-65">
          <mxGeometry width="50" height="50" relative="1" as="geometry">
            <mxPoint x="1040" y="830" as="sourcePoint" />
            <mxPoint x="1150" y="558" as="targetPoint" />
            <Array as="points">
              <mxPoint x="1040" y="558" />
            </Array>
          </mxGeometry>
        </mxCell>
        <mxCell id="vNjgoKGC3daDF4KBpXQI-104" value="" style="endArrow=classic;html=1;rounded=0;" edge="1" parent="1" target="vNjgoKGC3daDF4KBpXQI-65">
          <mxGeometry width="50" height="50" relative="1" as="geometry">
            <mxPoint x="1000" y="740" as="sourcePoint" />
            <mxPoint x="1140" y="520" as="targetPoint" />
            <Array as="points">
              <mxPoint x="1000" y="520" />
              <mxPoint x="1080" y="520" />
              <mxPoint x="1120" y="520" />
            </Array>
          </mxGeometry>
        </mxCell>
        <mxCell id="vNjgoKGC3daDF4KBpXQI-105" value="" style="rounded=0;whiteSpace=wrap;html=1;" vertex="1" parent="1">
          <mxGeometry x="1730" y="370" width="80" height="1050" as="geometry" />
        </mxCell>
        <mxCell id="vNjgoKGC3daDF4KBpXQI-106" value="&lt;font style=&quot;font-size: 36px;&quot;&gt;ID/EX&lt;/font&gt;" style="text;strokeColor=none;align=center;fillColor=none;html=1;verticalAlign=middle;whiteSpace=wrap;rounded=0;" vertex="1" parent="1">
          <mxGeometry x="1740" y="860" width="60" height="59.11" as="geometry" />
        </mxCell>
        <mxCell id="vNjgoKGC3daDF4KBpXQI-108" value="" style="endArrow=classic;html=1;rounded=0;entryX=0;entryY=0.75;entryDx=0;entryDy=0;" edge="1" parent="1" target="vNjgoKGC3daDF4KBpXQI-105">
          <mxGeometry width="50" height="50" relative="1" as="geometry">
            <mxPoint x="1370" y="1290" as="sourcePoint" />
            <mxPoint x="1630" y="1160" as="targetPoint" />
            <Array as="points">
              <mxPoint x="1560" y="1290" />
              <mxPoint x="1560" y="1160" />
            </Array>
          </mxGeometry>
        </mxCell>
        <mxCell id="vNjgoKGC3daDF4KBpXQI-109" value="&lt;font style=&quot;font-size: 24px;&quot;&gt;INSCTRUCTID&lt;/font&gt;" style="text;strokeColor=none;align=center;fillColor=none;html=1;verticalAlign=middle;whiteSpace=wrap;rounded=0;" vertex="1" parent="1">
          <mxGeometry x="1070" y="1300" width="60" height="60" as="geometry" />
        </mxCell>
        <mxCell id="vNjgoKGC3daDF4KBpXQI-111" value="&lt;font style=&quot;font-size: 24px;&quot;&gt;IMMID&lt;br&gt;&lt;/font&gt;" style="text;strokeColor=none;align=center;fillColor=none;html=1;verticalAlign=middle;whiteSpace=wrap;rounded=0;" vertex="1" parent="1">
          <mxGeometry x="1450" y="1290" width="60" height="60" as="geometry" />
        </mxCell>
        <mxCell id="vNjgoKGC3daDF4KBpXQI-112" value="&lt;font style=&quot;font-size: 24px;&quot;&gt;ReadData1&lt;/font&gt;" style="text;strokeColor=none;align=center;fillColor=none;html=1;verticalAlign=middle;whiteSpace=wrap;rounded=0;" vertex="1" parent="1">
          <mxGeometry x="1320" y="710" width="120" height="60" as="geometry" />
        </mxCell>
        <mxCell id="vNjgoKGC3daDF4KBpXQI-113" value="&lt;font style=&quot;font-size: 24px;&quot;&gt;ReadData2&lt;/font&gt;" style="text;strokeColor=none;align=center;fillColor=none;html=1;verticalAlign=middle;whiteSpace=wrap;rounded=0;" vertex="1" parent="1">
          <mxGeometry x="1320" y="805.89" width="120" height="60" as="geometry" />
        </mxCell>
        <mxCell id="vNjgoKGC3daDF4KBpXQI-115" value="" style="endArrow=classic;html=1;rounded=0;entryX=0.025;entryY=0.352;entryDx=0;entryDy=0;entryPerimeter=0;exitX=1;exitY=0.5;exitDx=0;exitDy=0;" edge="1" parent="1" source="vNjgoKGC3daDF4KBpXQI-112" target="vNjgoKGC3daDF4KBpXQI-105">
          <mxGeometry width="50" height="50" relative="1" as="geometry">
            <mxPoint x="1440" y="730" as="sourcePoint" />
            <mxPoint x="1500" y="690" as="targetPoint" />
          </mxGeometry>
        </mxCell>
        <mxCell id="vNjgoKGC3daDF4KBpXQI-116" value="" style="endArrow=classic;html=1;rounded=0;exitX=1;exitY=0.5;exitDx=0;exitDy=0;" edge="1" parent="1">
          <mxGeometry width="50" height="50" relative="1" as="geometry">
            <mxPoint x="1438" y="838" as="sourcePoint" />
            <mxPoint x="1730" y="838" as="targetPoint" />
          </mxGeometry>
        </mxCell>
        <mxCell id="vNjgoKGC3daDF4KBpXQI-119" value="" style="endArrow=none;html=1;rounded=0;strokeWidth=2;" edge="1" parent="1">
          <mxGeometry width="50" height="50" relative="1" as="geometry">
            <mxPoint x="1159" y="200" as="sourcePoint" />
            <mxPoint x="1159" y="120" as="targetPoint" />
          </mxGeometry>
        </mxCell>
        <mxCell id="vNjgoKGC3daDF4KBpXQI-120" value="" style="endArrow=none;html=1;rounded=0;strokeWidth=2;" edge="1" parent="1">
          <mxGeometry width="50" height="50" relative="1" as="geometry">
            <mxPoint x="1160" y="240" as="sourcePoint" />
            <mxPoint x="1160" y="200" as="targetPoint" />
            <Array as="points">
              <mxPoint x="1210" y="220" />
            </Array>
          </mxGeometry>
        </mxCell>
        <mxCell id="vNjgoKGC3daDF4KBpXQI-124" value="" style="endArrow=none;html=1;rounded=0;strokeWidth=2;" edge="1" parent="1">
          <mxGeometry width="50" height="50" relative="1" as="geometry">
            <mxPoint x="1160" y="320" as="sourcePoint" />
            <mxPoint x="1160" y="240" as="targetPoint" />
          </mxGeometry>
        </mxCell>
        <mxCell id="vNjgoKGC3daDF4KBpXQI-126" value="" style="endArrow=none;html=1;rounded=0;strokeWidth=2;" edge="1" parent="1">
          <mxGeometry width="50" height="50" relative="1" as="geometry">
            <mxPoint x="1160" y="320" as="sourcePoint" />
            <mxPoint x="1280" y="260" as="targetPoint" />
          </mxGeometry>
        </mxCell>
        <mxCell id="vNjgoKGC3daDF4KBpXQI-130" value="" style="endArrow=none;html=1;rounded=0;strokeWidth=2;" edge="1" parent="1">
          <mxGeometry width="50" height="50" relative="1" as="geometry">
            <mxPoint x="1280" y="260" as="sourcePoint" />
            <mxPoint x="1280" y="180" as="targetPoint" />
          </mxGeometry>
        </mxCell>
        <mxCell id="vNjgoKGC3daDF4KBpXQI-133" value="" style="endArrow=none;html=1;rounded=0;strokeWidth=2;" edge="1" parent="1">
          <mxGeometry width="50" height="50" relative="1" as="geometry">
            <mxPoint x="1160" y="120" as="sourcePoint" />
            <mxPoint x="1280" y="180" as="targetPoint" />
          </mxGeometry>
        </mxCell>
        <mxCell id="vNjgoKGC3daDF4KBpXQI-134" value="" style="endArrow=none;html=1;rounded=0;strokeWidth=2;" edge="1" parent="1">
          <mxGeometry width="50" height="50" relative="1" as="geometry">
            <mxPoint x="2150" y="825.89" as="sourcePoint" />
            <mxPoint x="2150" y="745.89" as="targetPoint" />
          </mxGeometry>
        </mxCell>
        <mxCell id="vNjgoKGC3daDF4KBpXQI-135" value="" style="endArrow=none;html=1;rounded=0;strokeWidth=2;" edge="1" parent="1">
          <mxGeometry width="50" height="50" relative="1" as="geometry">
            <mxPoint x="2151" y="865.89" as="sourcePoint" />
            <mxPoint x="2151" y="825.89" as="targetPoint" />
            <Array as="points">
              <mxPoint x="2201" y="845.89" />
            </Array>
          </mxGeometry>
        </mxCell>
        <mxCell id="vNjgoKGC3daDF4KBpXQI-136" value="" style="endArrow=none;html=1;rounded=0;strokeWidth=2;" edge="1" parent="1">
          <mxGeometry width="50" height="50" relative="1" as="geometry">
            <mxPoint x="2151" y="945.89" as="sourcePoint" />
            <mxPoint x="2151" y="865.89" as="targetPoint" />
          </mxGeometry>
        </mxCell>
        <mxCell id="vNjgoKGC3daDF4KBpXQI-137" value="" style="endArrow=none;html=1;rounded=0;strokeWidth=2;" edge="1" parent="1">
          <mxGeometry width="50" height="50" relative="1" as="geometry">
            <mxPoint x="2151" y="945.89" as="sourcePoint" />
            <mxPoint x="2271" y="885.89" as="targetPoint" />
          </mxGeometry>
        </mxCell>
        <mxCell id="vNjgoKGC3daDF4KBpXQI-138" value="" style="endArrow=none;html=1;rounded=0;strokeWidth=2;" edge="1" parent="1">
          <mxGeometry width="50" height="50" relative="1" as="geometry">
            <mxPoint x="2271" y="885.89" as="sourcePoint" />
            <mxPoint x="2271" y="805.89" as="targetPoint" />
          </mxGeometry>
        </mxCell>
        <mxCell id="vNjgoKGC3daDF4KBpXQI-139" value="" style="endArrow=none;html=1;rounded=0;strokeWidth=2;" edge="1" parent="1">
          <mxGeometry width="50" height="50" relative="1" as="geometry">
            <mxPoint x="2151" y="745.89" as="sourcePoint" />
            <mxPoint x="2271" y="805.89" as="targetPoint" />
          </mxGeometry>
        </mxCell>
        <mxCell id="vNjgoKGC3daDF4KBpXQI-141" value="" style="endArrow=classic;html=1;rounded=0;jumpStyle=arc;jumpSize=36;" edge="1" parent="1">
          <mxGeometry width="50" height="50" relative="1" as="geometry">
            <mxPoint x="1560" y="1160" as="sourcePoint" />
            <mxPoint x="1160" y="280" as="targetPoint" />
            <Array as="points">
              <mxPoint x="1550" y="390" />
              <mxPoint x="1120" y="390" />
              <mxPoint x="1120" y="280" />
            </Array>
          </mxGeometry>
        </mxCell>
        <mxCell id="vNjgoKGC3daDF4KBpXQI-142" value="" style="endArrow=classic;html=1;rounded=0;" edge="1" parent="1">
          <mxGeometry width="50" height="50" relative="1" as="geometry">
            <mxPoint x="800" y="450" as="sourcePoint" />
            <mxPoint x="1160" y="160" as="targetPoint" />
            <Array as="points">
              <mxPoint x="860" y="450" />
              <mxPoint x="860" y="160" />
            </Array>
          </mxGeometry>
        </mxCell>
        <mxCell id="vNjgoKGC3daDF4KBpXQI-143" value="&lt;font style=&quot;font-size: 36px;&quot;&gt;Adder&lt;/font&gt;" style="text;strokeColor=none;align=center;fillColor=none;html=1;verticalAlign=middle;whiteSpace=wrap;rounded=0;" vertex="1" parent="1">
          <mxGeometry x="1210" y="210" width="60" height="30" as="geometry" />
        </mxCell>
        <mxCell id="vNjgoKGC3daDF4KBpXQI-145" value="" style="endArrow=classic;html=1;rounded=0;entryX=0.191;entryY=0.059;entryDx=0;entryDy=0;entryPerimeter=0;" edge="1" parent="1" target="vNjgoKGC3daDF4KBpXQI-11">
          <mxGeometry width="50" height="50" relative="1" as="geometry">
            <mxPoint x="1280" y="235" as="sourcePoint" />
            <mxPoint x="150" y="935" as="targetPoint" />
            <Array as="points">
              <mxPoint x="1320" y="235" />
              <mxPoint x="1320" y="95" />
              <mxPoint x="80" y="95" />
              <mxPoint x="80" y="925" />
            </Array>
          </mxGeometry>
        </mxCell>
        <mxCell id="vNjgoKGC3daDF4KBpXQI-146" value="" style="endArrow=none;html=1;rounded=0;strokeWidth=2;" edge="1" parent="1">
          <mxGeometry width="50" height="50" relative="1" as="geometry">
            <mxPoint x="490" y="260" as="sourcePoint" />
            <mxPoint x="490" y="180" as="targetPoint" />
          </mxGeometry>
        </mxCell>
        <mxCell id="vNjgoKGC3daDF4KBpXQI-147" value="" style="endArrow=none;html=1;rounded=0;strokeWidth=2;" edge="1" parent="1">
          <mxGeometry width="50" height="50" relative="1" as="geometry">
            <mxPoint x="491" y="300" as="sourcePoint" />
            <mxPoint x="491" y="260" as="targetPoint" />
            <Array as="points">
              <mxPoint x="541" y="280" />
            </Array>
          </mxGeometry>
        </mxCell>
        <mxCell id="vNjgoKGC3daDF4KBpXQI-148" value="" style="endArrow=none;html=1;rounded=0;strokeWidth=2;" edge="1" parent="1">
          <mxGeometry width="50" height="50" relative="1" as="geometry">
            <mxPoint x="491" y="380" as="sourcePoint" />
            <mxPoint x="491" y="300" as="targetPoint" />
          </mxGeometry>
        </mxCell>
        <mxCell id="vNjgoKGC3daDF4KBpXQI-149" value="" style="endArrow=none;html=1;rounded=0;strokeWidth=2;" edge="1" parent="1">
          <mxGeometry width="50" height="50" relative="1" as="geometry">
            <mxPoint x="491" y="380" as="sourcePoint" />
            <mxPoint x="611" y="320" as="targetPoint" />
          </mxGeometry>
        </mxCell>
        <mxCell id="vNjgoKGC3daDF4KBpXQI-150" value="" style="endArrow=none;html=1;rounded=0;strokeWidth=2;" edge="1" parent="1">
          <mxGeometry width="50" height="50" relative="1" as="geometry">
            <mxPoint x="611" y="320" as="sourcePoint" />
            <mxPoint x="611" y="240" as="targetPoint" />
          </mxGeometry>
        </mxCell>
        <mxCell id="vNjgoKGC3daDF4KBpXQI-151" value="" style="endArrow=none;html=1;rounded=0;strokeWidth=2;" edge="1" parent="1">
          <mxGeometry width="50" height="50" relative="1" as="geometry">
            <mxPoint x="491" y="180" as="sourcePoint" />
            <mxPoint x="611" y="240" as="targetPoint" />
          </mxGeometry>
        </mxCell>
        <mxCell id="vNjgoKGC3daDF4KBpXQI-152" value="&lt;font style=&quot;font-size: 36px;&quot;&gt;Adder&lt;/font&gt;" style="text;strokeColor=none;align=center;fillColor=none;html=1;verticalAlign=middle;whiteSpace=wrap;rounded=0;connectable=0;" vertex="1" parent="1">
          <mxGeometry x="541" y="270" width="60" height="30" as="geometry" />
        </mxCell>
        <mxCell id="vNjgoKGC3daDF4KBpXQI-153" value="" style="endArrow=classic;html=1;rounded=0;" edge="1" parent="1">
          <mxGeometry width="50" height="50" relative="1" as="geometry">
            <mxPoint x="420" y="440" as="sourcePoint" />
            <mxPoint x="490" y="340" as="targetPoint" />
            <Array as="points">
              <mxPoint x="420" y="340" />
            </Array>
          </mxGeometry>
        </mxCell>
        <mxCell id="vNjgoKGC3daDF4KBpXQI-154" value="" style="endArrow=classic;html=1;rounded=0;" edge="1" parent="1">
          <mxGeometry width="50" height="50" relative="1" as="geometry">
            <mxPoint x="420" y="220" as="sourcePoint" />
            <mxPoint x="490" y="220" as="targetPoint" />
          </mxGeometry>
        </mxCell>
        <mxCell id="vNjgoKGC3daDF4KBpXQI-155" value="&lt;font style=&quot;font-size: 36px;&quot;&gt;4&lt;/font&gt;" style="text;strokeColor=none;align=center;fillColor=none;html=1;verticalAlign=middle;whiteSpace=wrap;rounded=0;" vertex="1" parent="1">
          <mxGeometry x="350" y="200" width="60" height="30" as="geometry" />
        </mxCell>
        <mxCell id="vNjgoKGC3daDF4KBpXQI-156" value="" style="endArrow=classic;html=1;rounded=0;" edge="1" parent="1">
          <mxGeometry width="50" height="50" relative="1" as="geometry">
            <mxPoint x="620" y="290" as="sourcePoint" />
            <mxPoint x="140" y="850" as="targetPoint" />
            <Array as="points">
              <mxPoint x="680" y="290" />
              <mxPoint x="680" y="130" />
              <mxPoint x="110" y="130" />
              <mxPoint x="110" y="850" />
            </Array>
          </mxGeometry>
        </mxCell>
        <mxCell id="vNjgoKGC3daDF4KBpXQI-158" value="&lt;font style=&quot;font-size: 24px;&quot;&gt;PCID&lt;/font&gt;" style="text;strokeColor=none;align=center;fillColor=none;html=1;verticalAlign=middle;whiteSpace=wrap;rounded=0;" vertex="1" parent="1">
          <mxGeometry x="140.16999999999996" y="630" width="60" height="30" as="geometry" />
        </mxCell>
        <mxCell id="vNjgoKGC3daDF4KBpXQI-159" value="&lt;font style=&quot;font-size: 24px;&quot;&gt;PCIF&lt;/font&gt;" style="text;strokeColor=none;align=center;fillColor=none;html=1;verticalAlign=middle;whiteSpace=wrap;rounded=0;" vertex="1" parent="1">
          <mxGeometry x="10" y="610" width="60" height="40" as="geometry" />
        </mxCell>
        <mxCell id="vNjgoKGC3daDF4KBpXQI-160" value="&lt;font style=&quot;font-size: 24px;&quot;&gt;IMMID(shift left 1 bit)&lt;/font&gt;" style="text;strokeColor=none;align=center;fillColor=none;html=1;verticalAlign=middle;whiteSpace=wrap;rounded=0;" vertex="1" parent="1">
          <mxGeometry x="1220" y="375" width="306.33" height="30" as="geometry" />
        </mxCell>
        <mxCell id="vNjgoKGC3daDF4KBpXQI-162" value="" style="ellipse;whiteSpace=wrap;html=1;" vertex="1" parent="1">
          <mxGeometry x="930" y="230" width="120" height="260" as="geometry" />
        </mxCell>
        <mxCell id="vNjgoKGC3daDF4KBpXQI-163" value="" style="endArrow=classic;html=1;rounded=0;entryX=0;entryY=0.5;entryDx=0;entryDy=0;" edge="1" parent="1" target="vNjgoKGC3daDF4KBpXQI-162">
          <mxGeometry width="50" height="50" relative="1" as="geometry">
            <mxPoint x="800" y="620" as="sourcePoint" />
            <mxPoint x="860" y="560" as="targetPoint" />
            <Array as="points">
              <mxPoint x="890" y="620" />
              <mxPoint x="890" y="360" />
            </Array>
          </mxGeometry>
        </mxCell>
        <mxCell id="vNjgoKGC3daDF4KBpXQI-164" value="&lt;font style=&quot;font-size: 24px;&quot;&gt;INSTRUCID[6:0]&lt;/font&gt;" style="text;whiteSpace=wrap;html=1;connectable=0;" vertex="1" parent="1">
          <mxGeometry x="800" y="620" width="180" height="50" as="geometry" />
        </mxCell>
        <mxCell id="vNjgoKGC3daDF4KBpXQI-166" value="&lt;font style=&quot;font-size: 36px;&quot;&gt;Control&lt;br&gt;&lt;/font&gt;" style="text;strokeColor=none;align=center;fillColor=none;html=1;verticalAlign=middle;whiteSpace=wrap;rounded=0;" vertex="1" parent="1">
          <mxGeometry x="960" y="345" width="60" height="30" as="geometry" />
        </mxCell>
        <mxCell id="vNjgoKGC3daDF4KBpXQI-167" value="" style="endArrow=classic;html=1;rounded=0;exitX=1;exitY=0.5;exitDx=0;exitDy=0;jumpStyle=arc;jumpSize=36;entryX=0;entryY=0.19;entryDx=0;entryDy=0;entryPerimeter=0;" edge="1" parent="1" source="vNjgoKGC3daDF4KBpXQI-162" target="vNjgoKGC3daDF4KBpXQI-105">
          <mxGeometry width="50" height="50" relative="1" as="geometry">
            <mxPoint x="1070" y="360" as="sourcePoint" />
            <mxPoint x="1640" y="570" as="targetPoint" />
            <Array as="points">
              <mxPoint x="1600" y="360" />
              <mxPoint x="1600" y="570" />
            </Array>
          </mxGeometry>
        </mxCell>
        <mxCell id="vNjgoKGC3daDF4KBpXQI-168" value="&lt;font style=&quot;font-size: 24px;&quot;&gt;ALUSRCID, MEMTOREGID, REGWRITEID, MEMREADID, MEMWRITEID,&amp;nbsp; ALUOP1ID, ALUOP2ID, ALUOP3ID&lt;br&gt;&lt;/font&gt;" style="text;strokeColor=none;align=center;fillColor=none;html=1;verticalAlign=middle;whiteSpace=wrap;rounded=0;" vertex="1" parent="1">
          <mxGeometry x="1190" y="290" width="590" height="50" as="geometry" />
        </mxCell>
        <mxCell id="vNjgoKGC3daDF4KBpXQI-169" value="" style="endArrow=classic;html=1;rounded=0;entryX=0.5;entryY=0;entryDx=0;entryDy=0;jumpSize=36;jumpStyle=arc;" edge="1" parent="1" target="vNjgoKGC3daDF4KBpXQI-15">
          <mxGeometry width="50" height="50" relative="1" as="geometry">
            <mxPoint x="1390" y="520" as="sourcePoint" />
            <mxPoint x="840" y="510" as="targetPoint" />
            <Array as="points">
              <mxPoint x="1450" y="520" />
              <mxPoint x="1450" y="430" />
              <mxPoint x="1080" y="430" />
              <mxPoint x="1080" y="460" />
              <mxPoint x="1080" y="510" />
              <mxPoint x="820" y="510" />
              <mxPoint x="820" y="110" />
              <mxPoint x="760" y="110" />
            </Array>
          </mxGeometry>
        </mxCell>
        <mxCell id="vNjgoKGC3daDF4KBpXQI-170" value="" style="endArrow=classic;html=1;rounded=0;entryX=0.5;entryY=1;entryDx=0;entryDy=0;" edge="1" parent="1" target="vNjgoKGC3daDF4KBpXQI-162">
          <mxGeometry width="50" height="50" relative="1" as="geometry">
            <mxPoint x="1000" y="510" as="sourcePoint" />
            <mxPoint x="1050" y="460" as="targetPoint" />
            <Array as="points">
              <mxPoint x="990" y="510" />
            </Array>
          </mxGeometry>
        </mxCell>
        <mxCell id="vNjgoKGC3daDF4KBpXQI-172" value="" style="endArrow=classic;html=1;rounded=0;entryX=0.5;entryY=0;entryDx=0;entryDy=0;jumpStyle=arc;jumpSize=36;" edge="1" parent="1" target="vNjgoKGC3daDF4KBpXQI-1">
          <mxGeometry width="50" height="50" relative="1" as="geometry">
            <mxPoint x="760" y="300" as="sourcePoint" />
            <mxPoint x="280" y="160" as="targetPoint" />
            <Array as="points">
              <mxPoint x="760" y="210" />
              <mxPoint x="760" y="110" />
              <mxPoint x="333" y="110" />
            </Array>
          </mxGeometry>
        </mxCell>
        <mxCell id="vNjgoKGC3daDF4KBpXQI-173" value="&lt;font style=&quot;font-size: 24px;&quot;&gt;stall&lt;br&gt;&lt;/font&gt;" style="text;strokeColor=none;align=center;fillColor=none;html=1;verticalAlign=middle;whiteSpace=wrap;rounded=0;" vertex="1" parent="1">
          <mxGeometry x="1400" y="540" width="60" height="30" as="geometry" />
        </mxCell>
        <mxCell id="vNjgoKGC3daDF4KBpXQI-174" value="" style="ellipse;whiteSpace=wrap;html=1;" vertex="1" parent="1">
          <mxGeometry x="1220" y="1425" width="80" height="230" as="geometry" />
        </mxCell>
        <mxCell id="vNjgoKGC3daDF4KBpXQI-175" value="" style="strokeWidth=2;html=1;shape=mxgraph.flowchart.terminator;whiteSpace=wrap;rotation=-91;" vertex="1" parent="1">
          <mxGeometry x="1340" y="1425" width="147.33" height="60" as="geometry" />
        </mxCell>
        <mxCell id="vNjgoKGC3daDF4KBpXQI-176" value="" style="strokeWidth=2;html=1;shape=mxgraph.flowchart.terminator;whiteSpace=wrap;rotation=-91;" vertex="1" parent="1">
          <mxGeometry x="1340" y="1615" width="147.33" height="60" as="geometry" />
        </mxCell>
        <mxCell id="vNjgoKGC3daDF4KBpXQI-177" value="&lt;font style=&quot;font-size: 36px;&quot;&gt;MUX&lt;/font&gt;" style="text;strokeColor=none;align=center;fillColor=none;html=1;verticalAlign=middle;whiteSpace=wrap;rounded=0;connectable=0;allowArrows=0;" vertex="1" parent="1">
          <mxGeometry x="1400" y="1430" width="51.33" height="50" as="geometry" />
        </mxCell>
        <mxCell id="vNjgoKGC3daDF4KBpXQI-178" value="&lt;font style=&quot;font-size: 36px;&quot;&gt;MUX&lt;/font&gt;" style="text;strokeColor=none;align=center;fillColor=none;html=1;verticalAlign=middle;whiteSpace=wrap;rounded=0;connectable=0;" vertex="1" parent="1">
          <mxGeometry x="1388" y="1625" width="51.33" height="50" as="geometry" />
        </mxCell>
        <mxCell id="vNjgoKGC3daDF4KBpXQI-179" value="&lt;font style=&quot;font-size: 36px;&quot;&gt;Comparator&lt;/font&gt;" style="text;strokeColor=none;align=center;fillColor=none;html=1;verticalAlign=middle;whiteSpace=wrap;rounded=0;" vertex="1" parent="1">
          <mxGeometry x="1230" y="1520" width="40" height="30" as="geometry" />
        </mxCell>
        <mxCell id="vNjgoKGC3daDF4KBpXQI-180" value="" style="endArrow=classic;html=1;rounded=0;entryX=0.89;entryY=0.89;entryDx=0;entryDy=0;entryPerimeter=0;jumpStyle=arc;jumpSize=36;" edge="1" parent="1" target="vNjgoKGC3daDF4KBpXQI-175">
          <mxGeometry width="50" height="50" relative="1" as="geometry">
            <mxPoint x="1630" y="740" as="sourcePoint" />
            <mxPoint x="1630" y="1410" as="targetPoint" />
            <Array as="points">
              <mxPoint x="1630" y="1397" />
            </Array>
          </mxGeometry>
        </mxCell>
        <mxCell id="vNjgoKGC3daDF4KBpXQI-181" value="" style="endArrow=classic;html=1;rounded=0;entryX=0.89;entryY=0.89;entryDx=0;entryDy=0;entryPerimeter=0;jumpStyle=arc;jumpSize=36;" edge="1" parent="1" target="vNjgoKGC3daDF4KBpXQI-176">
          <mxGeometry width="50" height="50" relative="1" as="geometry">
            <mxPoint x="1670" y="840" as="sourcePoint" />
            <mxPoint x="1450" y="1590" as="targetPoint" />
            <Array as="points">
              <mxPoint x="1670" y="1587" />
            </Array>
          </mxGeometry>
        </mxCell>
        <mxCell id="vNjgoKGC3daDF4KBpXQI-182" value="" style="endArrow=classic;html=1;rounded=0;entryX=0;entryY=0.981;entryDx=0;entryDy=0;entryPerimeter=0;" edge="1" parent="1" target="vNjgoKGC3daDF4KBpXQI-105">
          <mxGeometry width="50" height="50" relative="1" as="geometry">
            <mxPoint x="800" y="1380" as="sourcePoint" />
            <mxPoint x="1690" y="1360" as="targetPoint" />
            <Array as="points">
              <mxPoint x="880" y="1380" />
              <mxPoint x="880" y="1770" />
              <mxPoint x="1690" y="1770" />
              <mxPoint x="1690" y="1400" />
            </Array>
          </mxGeometry>
        </mxCell>
        <mxCell id="vNjgoKGC3daDF4KBpXQI-184" value="&lt;font style=&quot;font-size: 24px;&quot;&gt;PCID, INSTRUCID[11:7], &lt;/font&gt;&lt;font style=&quot;font-size: 24px;&quot;&gt;INSTRUCID[31:25], &lt;/font&gt;&lt;font style=&quot;font-size: 24px;&quot;&gt;INSTRUCID[14:12], &lt;/font&gt;&lt;font style=&quot;font-size: 24px;&quot;&gt;INSTRUCID[19:15], &lt;/font&gt;&lt;font style=&quot;font-size: 24px;&quot;&gt;INSTRUCID[24:20]&lt;/font&gt;" style="text;strokeColor=none;align=center;fillColor=none;html=1;verticalAlign=middle;whiteSpace=wrap;rounded=0;" vertex="1" parent="1">
          <mxGeometry x="850" y="1800" width="900" height="30" as="geometry" />
        </mxCell>
        <mxCell id="vNjgoKGC3daDF4KBpXQI-187" value="" style="endArrow=classic;html=1;rounded=0;jumpSize=36;jumpStyle=arc;" edge="1" parent="1">
          <mxGeometry width="50" height="50" relative="1" as="geometry">
            <mxPoint x="1040" y="420" as="sourcePoint" />
            <mxPoint x="1010" y="1520" as="targetPoint" />
            <Array as="points">
              <mxPoint x="1490" y="420" />
              <mxPoint x="1490" y="1190" />
              <mxPoint x="1100" y="1190" />
              <mxPoint x="1100" y="1520" />
            </Array>
          </mxGeometry>
        </mxCell>
        <mxCell id="vNjgoKGC3daDF4KBpXQI-188" value="" style="endArrow=classic;html=1;rounded=0;" edge="1" parent="1">
          <mxGeometry width="50" height="50" relative="1" as="geometry">
            <mxPoint x="1220" y="1540" as="sourcePoint" />
            <mxPoint x="1000" y="1540" as="targetPoint" />
          </mxGeometry>
        </mxCell>
        <mxCell id="vNjgoKGC3daDF4KBpXQI-189" value="" style="shape=xor;whiteSpace=wrap;html=1;rotation=-180;" vertex="1" parent="1">
          <mxGeometry x="950" y="1490" width="80" height="80" as="geometry" />
        </mxCell>
        <mxCell id="vNjgoKGC3daDF4KBpXQI-190" value="&lt;font style=&quot;font-size: 36px;&quot;&gt;OR&lt;/font&gt;" style="text;strokeColor=none;align=center;fillColor=none;html=1;verticalAlign=middle;whiteSpace=wrap;rounded=0;connectable=0;allowArrows=0;" vertex="1" parent="1">
          <mxGeometry x="960" y="1505" width="51.33" height="50" as="geometry" />
        </mxCell>
        <mxCell id="vNjgoKGC3daDF4KBpXQI-191" value="" style="endArrow=classic;html=1;rounded=0;entryX=0;entryY=0.5;entryDx=0;entryDy=0;entryPerimeter=0;" edge="1" parent="1" target="vNjgoKGC3daDF4KBpXQI-11">
          <mxGeometry width="50" height="50" relative="1" as="geometry">
            <mxPoint x="950" y="1530" as="sourcePoint" />
            <mxPoint x="220" y="1490" as="targetPoint" />
            <Array as="points">
              <mxPoint x="170" y="1530" />
            </Array>
          </mxGeometry>
        </mxCell>
        <mxCell id="vNjgoKGC3daDF4KBpXQI-192" value="&lt;font style=&quot;font-size: 24px;&quot;&gt;PCSRCID&lt;br&gt;&lt;/font&gt;" style="text;strokeColor=none;align=center;fillColor=none;html=1;verticalAlign=middle;whiteSpace=wrap;rounded=0;" vertex="1" parent="1">
          <mxGeometry x="330" y="1505" width="80" height="30" as="geometry" />
        </mxCell>
        <mxCell id="vNjgoKGC3daDF4KBpXQI-193" value="&lt;font style=&quot;font-size: 24px;&quot;&gt;BRIDGEID&lt;br&gt;&lt;/font&gt;" style="text;strokeColor=none;align=center;fillColor=none;html=1;verticalAlign=middle;whiteSpace=wrap;rounded=0;" vertex="1" parent="1">
          <mxGeometry x="1020" y="390" width="306.33" height="30" as="geometry" />
        </mxCell>
        <mxCell id="vNjgoKGC3daDF4KBpXQI-196" value="" style="endArrow=classic;html=1;rounded=0;" edge="1" parent="1">
          <mxGeometry width="50" height="50" relative="1" as="geometry">
            <mxPoint x="1390" y="1450" as="sourcePoint" />
            <mxPoint x="1300" y="1488" as="targetPoint" />
            <Array as="points">
              <mxPoint x="1350" y="1450" />
              <mxPoint x="1350" y="1488" />
            </Array>
          </mxGeometry>
        </mxCell>
        <mxCell id="vNjgoKGC3daDF4KBpXQI-197" value="" style="endArrow=classic;html=1;rounded=0;entryX=1;entryY=0.578;entryDx=0;entryDy=0;entryPerimeter=0;" edge="1" parent="1" target="vNjgoKGC3daDF4KBpXQI-174">
          <mxGeometry width="50" height="50" relative="1" as="geometry">
            <mxPoint x="1380" y="1640" as="sourcePoint" />
            <mxPoint x="1350" y="1590" as="targetPoint" />
            <Array as="points">
              <mxPoint x="1360" y="1640" />
              <mxPoint x="1360" y="1558" />
            </Array>
          </mxGeometry>
        </mxCell>
        <mxCell id="vNjgoKGC3daDF4KBpXQI-199" value="Text" style="text;html=1;align=center;verticalAlign=middle;resizable=0;points=[];autosize=1;strokeColor=none;fillColor=none;" vertex="1" parent="1">
          <mxGeometry x="2685" y="845" width="50" height="30" as="geometry" />
        </mxCell>
        <mxCell id="vNjgoKGC3daDF4KBpXQI-201" value="&lt;font style=&quot;font-size: 36px;&quot;&gt;ALU&lt;br&gt;&lt;/font&gt;" style="text;strokeColor=none;align=center;fillColor=none;html=1;verticalAlign=middle;whiteSpace=wrap;rounded=0;" vertex="1" parent="1">
          <mxGeometry x="2210" y="835.89" width="60" height="20" as="geometry" />
        </mxCell>
      </root>
    </mxGraphModel>
  </diagram>
</mxfile>
